<svg xmlns="http://www.w3.org/2000/svg" xmlns:xlink="http://www.w3.org/1999/xlink" width="200" height="200" viewBox="0 0 200 200"><defs><clipPath id="b"><rect width="200" height="200"/></clipPath></defs><g id="a" clip-path="url(#b)"><path d="M0,83V2.8A2.8,2.8,0,0,1,2.8,0h7.965a2.8,2.8,0,0,1,2.8,2.8V83a2.8,2.8,0,0,1-2.8,2.8H2.8A2.8,2.8,0,0,1,0,83ZM19.511,70.228a28.937,28.937,0,0,1-2.338-11.805,28.937,28.937,0,0,1,2.338-11.805,27.589,27.589,0,0,1,6.33-9.068,27.9,27.9,0,0,1,9.467-5.817,33.988,33.988,0,0,1,23.268,0,27.913,27.913,0,0,1,9.467,5.817,27.625,27.625,0,0,1,6.33,9.068,28.98,28.98,0,0,1,2.338,11.805,28.98,28.98,0,0,1-2.338,11.805,27.64,27.64,0,0,1-6.33,9.068,27.926,27.926,0,0,1-9.467,5.817,34,34,0,0,1-23.268,0A27.914,27.914,0,0,1,25.841,79.3,27.6,27.6,0,0,1,19.511,70.228ZM30.859,58.423a17.762,17.762,0,0,0,1.085,6.159,15.388,15.388,0,0,0,3.193,5.246,16.179,16.179,0,0,0,23.61,0,15.485,15.485,0,0,0,3.193-5.246,18.049,18.049,0,0,0,0-12.318,15.525,15.525,0,0,0-3.193-5.247,16.178,16.178,0,0,0-23.61,0,15.427,15.427,0,0,0-3.193,5.247A17.775,17.775,0,0,0,30.859,58.423ZM88.572,79.3a27.9,27.9,0,0,0,9.467,5.817,32.862,32.862,0,0,0,11.634,2.053,28.2,28.2,0,0,0,4.335-.4,33.311,33.311,0,0,0,5.247-1.312,32.222,32.222,0,0,0,5.417-2.4,22.082,22.082,0,0,0,2.35-1.5,2.8,2.8,0,0,0,.4-4.171l-5.113-5.5a2.784,2.784,0,0,0-3.858-.23,12.575,12.575,0,0,1-2.845,1.871,13.544,13.544,0,0,1-5.931,1.312,15.631,15.631,0,0,1-11.8-5.019,15.407,15.407,0,0,1-3.194-5.246,18.049,18.049,0,0,1,0-12.318,15.447,15.447,0,0,1,3.194-5.247A15.628,15.628,0,0,1,109.672,42a10.789,10.789,0,0,1,5.36,1.482,20.2,20.2,0,0,1,3.143,2.214,2.8,2.8,0,0,0,3.8-.146l5.533-5.534a2.807,2.807,0,0,0-.169-4.117,23.63,23.63,0,0,0-7.118-4.223,29.812,29.812,0,0,0-10.55-2,32.849,32.849,0,0,0-11.634,2.053,27.887,27.887,0,0,0-9.467,5.817,27.551,27.551,0,0,0-6.33,9.068A28.941,28.941,0,0,0,79.9,58.423a28.941,28.941,0,0,0,2.338,11.805A27.566,27.566,0,0,0,88.572,79.3Zm45.069-1.369a14.56,14.56,0,0,1-1.712-7.185,16.556,16.556,0,0,1,1.6-7.584,15.581,15.581,0,0,1,4.278-5.245,21.707,21.707,0,0,1,6.215-3.362,42.654,42.654,0,0,1,7.357-1.877,65.473,65.473,0,0,1,7.7-.788c2.584-.114,5.018-.15,7.3-.15h3.657V50.211a8.978,8.978,0,0,0-3.653-7.7,15.329,15.329,0,0,0-9.128-2.567A21.188,21.188,0,0,0,144.482,44.1a2.8,2.8,0,0,1-3.647-.268l-3.307-3.307a2.8,2.8,0,0,1,.188-4.133,26.342,26.342,0,0,1,8.413-4.659,39.241,39.241,0,0,1,12.6-2.053,31.772,31.772,0,0,1,9.807,1.312,21.564,21.564,0,0,1,6.609,3.365,14.856,14.856,0,0,1,4.037,4.733,21.912,21.912,0,0,1,2.03,5.418,29.788,29.788,0,0,1,.74,5.3c.075,1.711.066,3.213.066,4.5V83a2.8,2.8,0,0,1-2.8,2.8h-6.387a2.8,2.8,0,0,1-2.8-2.8V78.549h-.577a17.059,17.059,0,0,1-7.528,6.646,23.566,23.566,0,0,1-10.037,1.97,26.665,26.665,0,0,1-7.357-1.026,19.923,19.923,0,0,1-6.387-3.08A15.789,15.789,0,0,1,133.641,77.927Zm11.977-8.212a5.823,5.823,0,0,0,.858,3.25,7.735,7.735,0,0,0,2.226,2.224,9.307,9.307,0,0,0,3.085,1.312,15.013,15.013,0,0,0,3.433.4c4.714,0,8.214-1.121,10.458-3.364a12.434,12.434,0,0,0,3.407-9.182V64a2.8,2.8,0,0,0-2.8-2.8h-.138c-1.9,0-4.031.115-6.388.266a33.6,33.6,0,0,0-6.672,1.121,15.267,15.267,0,0,0-5.3,2.509A5.478,5.478,0,0,0,145.618,69.715ZM197.2,0h-8.6a2.8,2.8,0,0,0-2.8,2.8V83a2.8,2.8,0,0,0,2.8,2.8h8.6A2.8,2.8,0,0,0,200,83V2.8A2.8,2.8,0,0,0,197.2,0ZM182.535,144.8H171.98a2.8,2.8,0,0,1-2.649-1.892l-13.3-38.8h-.245l-11.753,38.707a2.8,2.8,0,0,1-2.679,1.987h-11.1a2.8,2.8,0,0,1-2.647-1.888L117.2,112.713a.025.025,0,0,1-.01.018q.094,1.177.094,2.377c0,17-14.392,30.786-32.146,30.786-16.674,0-30.382-12.158-31.988-27.723l-.158.012V142a2.8,2.8,0,0,1-2.8,2.8H40.471a2.8,2.8,0,0,1-2.8-2.8V109.247h-.02c.012-.219.02-.439.02-.661a11.361,11.361,0,0,0-22.723,0c0,.222.008.442.021.661h-.021V142a2.8,2.8,0,0,1-2.8,2.8H2.8A2.8,2.8,0,0,0,0,147.6V197.2A2.8,2.8,0,0,0,2.8,200H197.2a2.8,2.8,0,0,0,2.8-2.8V99.524L185.185,142.9A2.8,2.8,0,0,1,182.535,144.8ZM72.7,102.607a16.546,16.546,0,0,0-3.425,5.628,19.063,19.063,0,0,0-1.163,6.606,19.6,19.6,0,0,0,.128,2.208,18.915,18.915,0,0,0,1.035,4.4,16.5,16.5,0,0,0,3.425,5.627,17.353,17.353,0,0,0,25.324,0,16.608,16.608,0,0,0,3.425-5.627,19.109,19.109,0,0,0,1.162-6.606c0-.177-.007-.353-.011-.529a19.084,19.084,0,0,0-1.151-6.077,16.65,16.65,0,0,0-3.425-5.628,17.352,17.352,0,0,0-25.324,0Zm54.643-1.732,8.476,26.569,8.476-26.569a2.8,2.8,0,0,0-2.667-3.651H130.012A2.8,2.8,0,0,0,127.345,100.876Zm44.074-3.651a2.8,2.8,0,0,0-2.668,3.651l8.476,26.569,8.477-26.569a2.8,2.8,0,0,0-2.668-3.651H171.419Z"/></g></svg>