         <svg
                    xmlns="http://www.w3.org/2000/svg"
                    width="999.95"
                    height="128"
                    viewBox="0 0 999.95 128"
                >
                    <g
                        id="Group_8105"
                        data-name="Group 8105"
                        transform="translate(-273.135 -363.415)"
                    >
                        <path
                            id="Path_12974"
                            data-name="Path 12974"
                            d="M546.222,364.707"
                            transform="translate(716.222 3.39)"
                            fill="none"
                            stroke="red"
                            strokeLinejoin="round"
                            strokeWidth="42"
                        />
                        <path
                            id="Path_12975"
                            data-name="Path 12975"
                            d="M350.852,412.04H313.317a9.522,9.522,0,0,1-9.618-9.14,9.311,9.311,0,0,1,9.14-9.481l.17,0H376.6c3.25,0,3.815-1.706,3.815-3.815V367.318A3.815,3.815,0,0,0,376.6,363.5H313.216c-21.932,0-40.335,17.943-40.078,39.871a39.4,39.4,0,0,0,38.578,38.9l0,.022H349.33a9.512,9.512,0,0,1,9.618,9.136,9.308,9.308,0,0,1-9.136,9.481l-.174,0H280.981a3.813,3.813,0,0,0-3.815,3.815V487.16a3.812,3.812,0,0,0,3.815,3.811h68.346c21.848,0,40.245-17.874,40.071-39.719A39.5,39.5,0,0,0,350.852,412.04Z"
                            transform="translate(0 0.232)"
                            fill="#fff"
                        />
                        <path
                            id="Path_12976"
                            data-name="Path 12976"
                            d="M538.965,412.04H501.434a9.523,9.523,0,0,1-9.622-9.14,9.314,9.314,0,0,1,9.14-9.481l.174,0h63.585a3.815,3.815,0,0,0,3.815-3.815V367.318a3.815,3.815,0,0,0-3.815-3.815H501.329c-21.917,0-40.324,17.936-40.074,39.853A39.41,39.41,0,0,0,499.829,442.3h37.922a9.31,9.31,0,0,1,.015,18.621h-.015l-95.494.134a3.817,3.817,0,0,0-3.811,3.815v22.29a3.815,3.815,0,0,0,3.815,3.815h95.175c21.849,0,40.248-17.874,40.071-39.723A39.494,39.494,0,0,0,538.965,412.04Z"
                            transform="translate(433.559 0.232)"
                            fill="#fff"
                        />
                        <path
                            id="Path_12977"
                            data-name="Path 12977"
                            d="M376.971,363.416H311.466a3.815,3.815,0,0,0-3.815,3.815h0V487.388a3.816,3.816,0,0,0,3.811,3.815h22.283a3.812,3.812,0,0,0,3.815-3.811V449.509a7.3,7.3,0,0,1,7.3-7.3h32.764a39.4,39.4,0,0,0,39.393-39.4c0-.225,0-.446,0-.667C416.654,380.54,398.577,363.416,376.971,363.416Zm-.728,48.885h-38.68V393.332h39a9.48,9.48,0,0,1,9.481,9.48v.181a9.825,9.825,0,0,1-9.8,9.307Z"
                            transform="translate(90.524 0.004)"
                            fill="#fff"
                        />
                        <path
                            id="Path_12978"
                            data-name="Path 12978"
                            d="M475.694,447.432a3.836,3.836,0,0,1,1.065-5.1,43.437,43.437,0,0,0-21.037-78.717v-.2H381.787a3.815,3.815,0,0,0-3.815,3.815h0V487.391a3.817,3.817,0,0,0,3.811,3.815H404.07a3.815,3.815,0,0,0,3.815-3.815h0V454.225a3.812,3.812,0,0,1,3.811-3.815h17.682c18.708,0,26.12,18.537,26.967,37.111a3.832,3.832,0,0,0,3.815,3.684h26.185v-.152C486.323,474.182,482.66,459.257,475.694,447.432Zm-67.81-50.283a3.813,3.813,0,0,1,3.815-3.815h38.987c7.481,0,13.542,5.333,13.542,13.541s-6.061,13.542-13.542,13.542H411.7a3.817,3.817,0,0,1-3.815-3.815Z"
                            transform="translate(274.954 0.001)"
                            fill="#fff"
                        />
                        <path
                            id="Path_12979"
                            data-name="Path 12979"
                            d="M537.687,363.416H409.592v.207q1.554,1.472,3.014,3.054a59.329,59.329,0,0,1,13.357,23.863,3.828,3.828,0,0,0,3.67,2.793h21.6a7.3,7.3,0,0,1,7.3,7.3v86.756a3.817,3.817,0,0,0,3.815,3.815h22.283a3.812,3.812,0,0,0,3.815-3.811V400.628a7.3,7.3,0,0,1,7.3-7.3h22.924a3.827,3.827,0,0,0,3.713-2.967A55.417,55.417,0,0,1,537.687,363.416Z"
                            transform="translate(357.884 0.004)"
                            fill="#fff"
                        />
                        <circle
                            id="Ellipse_209"
                            data-name="Ellipse 209"
                            cx="14.956"
                            cy="14.956"
                            r="14.956"
                            transform="translate(1019.279 461.502)"
                            fill="#fcc834"
                        />
                        <path
                            id="Path_12982"
                            data-name="Path 12982"
                            d="M615.2,363.416a3.819,3.819,0,0,0-3.576,2.485l-25.7,69.009-7.416,19.914a3.649,3.649,0,0,1-6.9-.174l-6.441-20.37-21.588-68.2a3.812,3.812,0,0,0-3.633-2.663h-21.91a3.815,3.815,0,0,0-3.815,3.815,3.764,3.764,0,0,0,.178,1.152L546.765,470.64v.014a29.28,29.28,0,0,0,27.945,20.552h0a29.312,29.312,0,0,0,28.34-21.95l37.5-100.689a3.812,3.812,0,0,0-3.576-5.144Z"
                            transform="translate(632.296 0.004)"
                            fill="#fcc834"
                        />
                        <path
                            id="Path_12983"
                            data-name="Path 12983"
                            d="M586.5,363.416H482.461a3.817,3.817,0,0,0-3.815,3.815v22.283a3.813,3.813,0,0,0,3.815,3.815h37.825a7.3,7.3,0,0,1,7.3,7.3v86.76A3.815,3.815,0,0,0,531.4,491.2h22.283a3.815,3.815,0,0,0,3.815-3.815h0v-86.76a7.3,7.3,0,0,1,7.3-7.3h28.764a3.817,3.817,0,0,0,3.815-3.815,3.862,3.862,0,0,0-.178-1.152l-7.061-22.28A3.816,3.816,0,0,0,586.5,363.416Z"
                            transform="translate(538.991 0.004)"
                            fill="#fcc834"
                        />
                        <path
                            id="Path_14621"
                            data-name="Path 14621"
                            d="M451.762,379.889c-6.3-7.561-16.78-12.607-31.159-15a104.426,104.426,0,0,0-34.952,0c-14.378,2.4-24.859,7.445-31.159,15-13.513,16.219-14.563,40.4-14.563,47.425v.214c0,9.745,0,32.575,15.549,48.127,14.712,14.712,41.589,15.548,47.468,15.548h.362c5.883,0,32.757-.837,47.468-15.548,15.548-15.556,15.548-38.382,15.548-48.131v-.214C466.326,420.285,465.279,396.107,451.762,379.889Zm-16.28,51.134L378.939,457.3a3.917,3.917,0,0,1-5.568-3.55V401.194a3.917,3.917,0,0,1,5.568-3.55l56.543,26.275A3.917,3.917,0,0,1,435.482,431.023Z"
                            transform="translate(175.182 0)"
                            fill="#fff"
                        />
                    </g>
                </svg>
      