          <svg
                    id="SportsTV_Logo"
                    data-name="SportsTV Logo"
                    xmlns="http://www.w3.org/2000/svg"
                    width="100"
                    height="40"
                    viewBox="0 0 1000 40"
                >
                    <path
                        id="Path_12974"
                        data-name="Path 12974"
                        d="M960.813,64.189"
                        transform="translate(28.543 -59.512)"
                        fill="none"
                        stroke="red"
                        strokeLinecap="round"
                        strokeWidth="42"
                    />
                    <g
                        id="Group_7786"
                        data-name="Group 7786"
                        transform="translate(0 0.314)"
                    >
                        <path
                            id="Path_12975"
                            data-name="Path 12975"
                            d="M476.862,110.251H439.327a9.517,9.517,0,0,1-9.619-9.138,9.313,9.313,0,0,1,9.311-9.485h63.59a3.816,3.816,0,0,0,3.815-3.815V65.527a3.816,3.816,0,0,0-3.815-3.815H439.223c-21.93,0-40.336,17.946-40.077,39.874a39.394,39.394,0,0,0,38.579,38.905l-.005.021h37.621a9.514,9.514,0,0,1,9.619,9.137,9.312,9.312,0,0,1-9.311,9.485H406.988a3.816,3.816,0,0,0-3.815,3.815v22.425a3.814,3.814,0,0,0,3.815,3.814h68.348c21.849,0,40.249-17.875,40.073-39.724A39.5,39.5,0,0,0,476.862,110.251Z"
                            transform="translate(-399.143 -61.712)"
                            fill="#fff"
                        />
                    </g>
                    <g
                        id="Group_7787"
                        data-name="Group 7787"
                        transform="translate(598.902 0.314)"
                    >
                        <path
                            id="Path_12976"
                            data-name="Path 12976"
                            d="M839.669,110.251H802.134a9.517,9.517,0,0,1-9.619-9.138,9.313,9.313,0,0,1,9.311-9.485h63.59a3.816,3.816,0,0,0,3.815-3.815V65.527a3.816,3.816,0,0,0-3.815-3.815H802.03c-21.919,0-40.325,17.937-40.077,39.855a39.412,39.412,0,0,0,38.579,38.946h37.924a9.311,9.311,0,1,1,0,18.622l-95.5.136a3.813,3.813,0,0,0-3.81,3.814v22.291a3.814,3.814,0,0,0,3.815,3.814h95.18c21.849,0,40.249-17.875,40.073-39.724A39.5,39.5,0,0,0,839.669,110.251Z"
                            transform="translate(-739.148 -61.712)"
                            fill="#fff"
                        />
                    </g>
                    <path
                        id="Path_12977"
                        data-name="Path 12977"
                        d="M539.458,61.534h-65.51a3.815,3.815,0,0,0-3.815,3.815V185.51a3.813,3.813,0,0,0,3.815,3.814h22.282a3.813,3.813,0,0,0,3.815-3.814V147.629a7.3,7.3,0,0,1,7.3-7.3h32.763A39.4,39.4,0,0,0,579.5,100.26C579.141,78.657,561.064,61.534,539.458,61.534Zm-.731,48.884H500.046V91.449h39a9.483,9.483,0,0,1,9.482,9.662A9.822,9.822,0,0,1,538.728,110.418Z"
                        transform="translate(-345.088 -61.533)"
                        fill="#fff"
                    />
                    <path
                        id="Path_12978"
                        data-name="Path 12978"
                        d="M712.493,145.552a3.838,3.838,0,0,1,1.066-5.1A43.441,43.441,0,0,0,692.522,61.73v-.2H618.581a3.815,3.815,0,0,0-3.815,3.815V185.51a3.813,3.813,0,0,0,3.815,3.814h22.284a3.814,3.814,0,0,0,3.815-3.814V152.342a3.814,3.814,0,0,1,3.813-3.815h17.683c18.707,0,26.119,18.539,26.968,37.114a3.83,3.83,0,0,0,3.814,3.683h26.188l0-.151C723.122,172.3,719.46,157.375,712.493,145.552ZM644.681,95.264a3.814,3.814,0,0,1,3.813-3.815h38.992c7.479,0,13.542,5.335,13.542,13.542s-6.063,13.542-13.542,13.542H648.494a3.814,3.814,0,0,1-3.813-3.815Z"
                        transform="translate(-234.957 -61.533)"
                        fill="#fff"
                    />
                    <path
                        id="Path_12979"
                        data-name="Path 12979"
                        d="M807.9,61.534H679.8v.206q1.554,1.469,3.014,3.053A59.343,59.343,0,0,1,696.17,88.655a3.823,3.823,0,0,0,3.671,2.794h21.6a7.3,7.3,0,0,1,7.3,7.3V185.51a3.814,3.814,0,0,0,3.815,3.814h22.284a3.813,3.813,0,0,0,3.815-3.814V98.745a7.3,7.3,0,0,1,7.3-7.3h22.924a3.827,3.827,0,0,0,3.715-2.965A55.408,55.408,0,0,1,807.9,61.534Z"
                        transform="translate(-185.434 -61.533)"
                        fill="#fff"
                    />
                    <g
                        id="Group_7788"
                        data-name="Group 7788"
                        transform="translate(241.988)"
                    >
                        <path
                            id="Path_12980"
                            data-name="Path 12980"
                            d="M590.8,98.988l-17.947-9.655a6.23,6.23,0,0,0-9.181,5.487v19.307a6.23,6.23,0,0,0,9.181,5.487L590.8,109.96A6.229,6.229,0,0,0,590.8,98.988Z"
                            transform="translate(-515.848 -40.939)"
                            fill="#fcc834"
                        />
                        <path
                            id="Path_12981"
                            data-name="Path 12981"
                            d="M599.905,189.324h-.361c-5.88,0-32.758-.837-47.471-15.55-15.554-15.554-15.55-38.384-15.55-48.132v-.213c0-7.025,1.052-31.206,14.565-47.427,6.3-7.557,16.781-12.6,31.16-15a104.44,104.44,0,0,1,34.953,0c14.38,2.394,24.863,7.439,31.16,15,13.516,16.219,14.565,40.4,14.565,47.425v.213c0,9.748,0,32.578-15.55,48.132C632.663,188.487,605.789,189.324,599.905,189.324Zm-.763-98.087c-10.352,0-22.77,2.825-25.231,5.779-2.854,3.426-7.682,13.264-7.682,28.412v.217c0,6.066,0,20.271,6.849,27.123,4.458,4.458,18.326,6.843,26.623,6.85h.076c8.3-.012,22.142-2.4,26.594-6.85,6.852-6.852,6.85-21.056,6.85-27.123v-.217c0-7.129-1.619-21.134-7.682-28.41-2.531-3.037-15.24-5.91-25.643-5.779l-.171,0-.171,0C599.417,91.237,599.28,91.237,599.143,91.237Z"
                            transform="translate(-536.523 -61.534)"
                            fill="#fff"
                        />
                    </g>
                    <circle
                        id="Ellipse_209"
                        data-name="Ellipse 209"
                        cx="14.957"
                        cy="14.957"
                        r="14.957"
                        transform="translate(746.18 98.086)"
                        fill="#fcc834"
                    />
                    <path
                        id="Path_12982"
                        data-name="Path 12982"
                        d="M995.984,61.534a3.815,3.815,0,0,0-3.576,2.484l-25.7,69.01-7.417,19.917a3.648,3.648,0,0,1-6.9-.173L945.948,132.4,924.361,64.2a3.815,3.815,0,0,0-3.637-2.663H898.813a3.815,3.815,0,0,0-3.637,4.966l32.367,102.258,0,.014a29.278,29.278,0,0,0,27.946,20.553h0a29.314,29.314,0,0,0,28.344-21.949l37.5-100.694a3.815,3.815,0,0,0-3.576-5.147Z"
                        transform="translate(-21.574 -61.533)"
                        fill="#fcc834"
                    />
                    <path
                        id="Path_12983"
                        data-name="Path 12983"
                        d="M929.689,61.534H825.641a3.816,3.816,0,0,0-3.815,3.815V87.633a3.816,3.816,0,0,0,3.815,3.815h37.827a7.3,7.3,0,0,1,7.3,7.3V185.51a3.814,3.814,0,0,0,3.815,3.814h22.284a3.814,3.814,0,0,0,3.815-3.814V98.745a7.3,7.3,0,0,1,7.3-7.3h28.766a3.815,3.815,0,0,0,3.637-4.967L933.326,64.2A3.815,3.815,0,0,0,929.689,61.534Z"
                        transform="translate(-77.289 -61.533)"
                        fill="#fcc834"
                    />
                </svg>
      